<svg xmlns="http://www.w3.org/2000/svg" viewBox="0 0 80 80">
  <path fill-rule="evenodd" clip-rule="evenodd" d="M48.83 24.007l-4.862.002s-.098-.007-.275-.007c-1 0-6.045.278-7.416 5.686-.02.06-.486 1.415-.494 4.563h-4.61c-.41 0-.74.333-.74.743v4.253c0 .407.33.738.74.738h5.046v15.268c0 .408.33.742.737.742h5.777c.412 0 .742-.334.742-.742v-15.25h5.064c.408 0 .736-.333.736-.742v-4.267c0-.41-.328-.743-.736-.743h-5.053V32.43c0-1.212.77-2.512 2.936-2.512h2.408c.41 0 .74-.333.74-.74v-4.43c0-.408-.33-.74-.74-.74zm-.74 4.427h-1.667c-3.053 0-4.416 2.01-4.416 3.996v2.567c0 .41.328.742.736.742h5.055v2.783h-5.064c-.41 0-.738.333-.738.742v15.25H37.7V39.248c0-.414-.33-.743-.743-.743h-5.043v-2.77h4.62c.198 0 .388-.08.528-.22.137-.146.217-.337.213-.537-.068-3.37.395-4.792.416-4.86 1.1-4.3 4.874-4.634 6.003-4.634.102 0 .164 0 .225.003h4.174v2.944zm0 0"/>
  <path d="M40 71.66L12.58 55.83V24.17L40 8.34l27.42 15.83v31.66L40 71.66zM13.82 55.115L40 70.23l26.18-15.115v-30.23L40 9.77 13.82 24.885v30.23z"/>
</svg>
