<svg xmlns="http://www.w3.org/2000/svg" viewBox="0 0 80 80">
  <path fill-rule="evenodd" clip-rule="evenodd" d="M51.387 27.857H48.3c-1.007 0-1.827.82-1.827 1.828v3.082c0 1.008.82 1.828 1.828 1.828h3.087c1.004 0 1.824-.82 1.824-1.828v-3.082c0-1.007-.82-1.828-1.823-1.828zm.226 4.91c0 .126-.102.228-.227.228H48.3c-.125 0-.227-.102-.227-.227v-3.082c0-.125.102-.228.227-.228h3.086c.12 0 .227.103.227.228v3.082zM49.598 23.6h-19.2c-3.97 0-7.2 3.23-7.2 7.2v18.4c0 3.97 3.23 7.2 7.2 7.2h19.2c3.972 0 7.202-3.23 7.202-7.2V30.8c0-3.97-3.23-7.2-7.202-7.2zm5.6 25.6c0 3.087-2.51 5.6-5.6 5.6h-19.2c-3.087 0-5.598-2.513-5.598-5.6v-12h8.063c-1.527 1.7-2.465 3.94-2.465 6.4 0 5.292 4.31 9.6 9.602 9.6s9.598-4.308 9.598-9.6c0-2.462-.938-4.7-2.465-6.4H55.2v12zM40 35.6c4.41 0 8 3.59 8 8s-3.59 8-8 8-8-3.59-8-8 3.59-8 8-8zm15.2 0h-9.907c-1.52-1.008-3.336-1.603-5.293-1.603s-3.778.595-5.297 1.603H24.8v-4.8c0-3.088 2.512-5.6 5.6-5.6h19.198c3.09 0 5.602 2.512 5.602 5.6v4.8zM40 49.2c3.086 0 5.598-2.51 5.598-5.6S43.086 37.995 40 37.995c-3.09 0-5.603 2.513-5.603 5.603S36.91 49.2 40 49.2zm0-9.6c2.203 0 4 1.793 4 4s-1.797 4-4 4c-2.207 0-4-1.793-4-4s1.793-4 4-4zm0 0"/>
  <path d="M40 71.66L12.58 55.83V24.17L40 8.34l27.42 15.83v31.66L40 71.66zM13.82 55.115L40 70.23l26.18-15.115v-30.23L40 9.77 13.82 24.885v30.23z"/>
</svg>
