<svg xmlns="http://www.w3.org/2000/svg" viewBox="0 0 80 80">
  <path fill-rule="evenodd" clip-rule="evenodd" d="M30.278 32.474h-6.536c-.445 0-.805.36-.805.807v22.85c0 .445.36.81.805.81h6.54c.447 0 .807-.364.807-.81V33.28c-.002-.446-.36-.806-.812-.806zm-.807 22.844h-4.918V34.09h4.92V55.32zM48.5 32.193c-3.17 0-5.246 1.373-6.45 2.562l-.15-1.55c-.04-.414-.392-.73-.808-.73h-.016l-5.958.114c-.22.003-.427.093-.574.252-.15.162-.23.372-.22.593.074 1.664.074 3.617.07 5.874v16.934c0 .445.36.81.807.81h6.54c.448 0 .808-.364.808-.81v-13.21c0-.673.06-1.157.174-1.452.406-1.035 1.752-2.106 3.297-2.106 1.997 0 3.19 1.518 3.19 4.07v12.698c0 .445.363.81.81.81h6.42c.448 0 .812-.364.812-.81v-13.53c-.002-6.587-3.272-10.52-8.752-10.52zm7.13 23.24h-4.8V43.546c0-3.456-1.89-5.69-4.813-5.69-2.32 0-4.207 1.62-4.8 3.132-.198.494-.288 1.146-.288 2.046v12.4h-4.92V39.31c.004-1.917.008-3.613-.04-5.12l4.385-.082.253 2.61c.04.415.39.73.807.73h.14c.278 0 .536-.14.687-.378.475-.763 2.34-3.254 6.258-3.254 4.533 0 7.13 3.242 7.13 8.9v12.718zM27.285 22.946c-2.625 0-4.535 1.81-4.535 4.31 0 2.495 1.87 4.302 4.444 4.302 2.656 0 4.583-1.807 4.583-4.32-.06-2.528-1.906-4.292-4.49-4.292zm-.092 6.995c-1.664 0-2.822-1.104-2.822-2.686 0-1.61 1.17-2.688 2.914-2.688 1.708 0 2.834 1.06 2.874 2.688 0 1.606-1.195 2.686-2.966 2.686zm0 0"/>
  <path d="M40 71.66L12.582 55.83V24.17L40 8.34l27.417 15.83v31.66L40 71.66zM13.82 55.115L40 70.23l26.18-15.115v-30.23L40 9.77 13.82 24.885v30.23z"/>
</svg>
