<?xml version="1.0" encoding="utf-8"?>
<!-- Generator: Adobe Illustrator 16.0.0, SVG Export Plug-In . SVG Version: 6.00 Build 0)  -->
<!DOCTYPE svg PUBLIC "-//W3C//DTD SVG 1.1//EN" "http://www.w3.org/Graphics/SVG/1.1/DTD/svg11.dtd">
<svg version="1.1" id="Layer_1" xmlns="http://www.w3.org/2000/svg" xmlns:xlink="http://www.w3.org/1999/xlink" x="0px" y="0px"
	 width="600px" height="500px" viewBox="0 0 600 500" enable-background="new 0 0 600 500" xml:space="preserve">
<g id="front-logo">
	<polygon id="Logo-bg" fill="#0C0C0C" points="153.085,335.565 152.444,165.553 299.359,79.991 446.915,164.443 447.556,334.451 
		300.645,420.009 	"/>
	<g id="logo-letter">
		<path fill="#F5F5F5" d="M298.337,297.046h-77.58l-1.983-1.987v-70.909l20.982-20.987h0.998v71.903h34.982"/>
		<path fill="#F5F5F5" d="M289.114,275.09v-34.501l18.843-18.791h0.998v73.261 M327.742,202.954h51.492l1.992,1.992v74.262
			l-16.853,16.853h-0.993V220.8h-53.484v-0.99L327.742,202.954z M328.735,223.732H343.6l1.987,1.992v16.848l-17.845,17.845
			l-0.998-0.993v-33.7L328.735,223.732z"/>
	</g>
</g>
</svg>
