<?xml version="1.0" standalone="no"?>
<!DOCTYPE svg PUBLIC "-//W3C//DTD SVG 20010904//EN"
 "http://www.w3.org/TR/2001/REC-SVG-20010904/DTD/svg10.dtd">
<svg version="1.0" xmlns="http://www.w3.org/2000/svg"
 width="600.000000pt" height="600.000000pt" viewBox="0 0 600.000000 600.000000"
 preserveAspectRatio="xMidYMid meet">
<metadata>
Created by potrace 1.14, written by Peter Selinger 2001-2017
</metadata>
<g transform="translate(0.000000,600.000000) scale(0.100000,-0.100000)"
fill="#000000" stroke="none">
<path d="M2965 4687 c-11 -7 -22 -15 -25 -18 -3 -3 -25 -16 -50 -30 -25 -13
-46 -27 -48 -31 -2 -5 -8 -8 -13 -8 -5 0 -97 -52 -205 -115 -108 -63 -197
-115 -199 -115 -2 0 -34 -19 -71 -42 -58 -35 -166 -98 -344 -201 -19 -11 -48
-28 -65 -39 -16 -10 -38 -21 -47 -24 -10 -4 -18 -10 -18 -15 0 -5 -5 -9 -11
-9 -6 0 -54 -26 -107 -57 -54 -32 -112 -66 -131 -76 -19 -10 -50 -29 -70 -42
l-37 -22 3 -504 c1 -277 2 -660 2 -850 l1 -346 38 -19 c20 -10 39 -21 42 -24
3 -3 14 -10 25 -16 77 -42 151 -84 220 -125 44 -25 96 -56 115 -66 19 -11 55
-32 80 -47 25 -14 61 -34 80 -44 19 -9 37 -20 38 -24 2 -5 8 -8 12 -8 5 0 33
-14 62 -31 29 -18 68 -40 86 -50 76 -44 110 -63 152 -87 25 -14 78 -45 118
-69 41 -24 76 -43 79 -43 3 0 25 -13 50 -30 24 -16 47 -30 52 -30 4 0 27 -13
52 -28 111 -71 182 -104 190 -90 5 7 9 9 9 5 0 -4 25 8 55 28 31 19 60 35 65
35 6 0 10 3 10 8 0 4 10 12 23 18 35 16 140 75 167 94 14 9 50 30 80 46 30 16
57 31 60 34 4 5 73 45 204 120 17 10 78 45 136 80 96 57 154 90 220 127 14 8
48 28 75 44 28 16 61 35 75 42 14 6 27 15 30 18 3 4 32 22 65 40 33 18 87 49
120 69 l60 37 -2 509 c-4 1303 -2 1194 -21 1201 -9 4 -50 26 -90 50 -41 24
-76 43 -78 43 -4 0 -77 43 -130 78 -10 6 -25 15 -33 19 -8 4 -58 31 -110 61
-53 31 -139 80 -191 109 -52 30 -108 62 -125 72 -16 10 -50 29 -75 43 -83 47
-115 65 -238 137 -68 39 -125 71 -129 71 -3 0 -25 14 -50 30 -24 17 -46 30
-49 30 -3 0 -39 20 -82 45 -85 50 -79 48 -107 32z"/>
</g>
</svg>
